<?xml version="1.0" encoding="iso-8859-1"?>
<!-- Generator: Adobe Illustrator 19.0.0, SVG Export Plug-In . SVG Version: 6.00 Build 0)  -->
<svg version="1.1" id="Capa_1" xmlns="http://www.w3.org/2000/svg" xmlns:xlink="http://www.w3.org/1999/xlink" x="0px" y="0px"
	viewBox="0 0 489 489" style="enable-background:new 0 0 489 489;" xml:space="preserve">
<g>
	<path d="M372.7,52.781h-95.6c-55.5,0-102,39.1-113.6,91.2h-45.4c-65.3,0-118.1,52.9-118.1,118.1c0,52.2,33.9,96.4,80.8,112v56.3
	c0,5.2,6.3,7.8,10,4.1l54.3-54.3h80.1c57.2,0,104.9-40.7,115.8-94.7h3l45.3,45.3c3.1,3.1,7.2,4.8,11.4,4.7c2.1,0,4.2-0.4,6.2-1.2
	c6.1-2.5,10-8.4,10-15v-42.6c43.5-17.8,72.1-60.1,72.1-107.6C489.1,104.981,436.9,52.781,372.7,52.781z M123.1,276.781
	c-8.1,0-14.6-6.5-14.6-14.6c0-8.1,6.5-14.6,14.6-14.6c8.1,0,14.6,6.5,14.6,14.6C137.7,270.281,131.2,276.781,123.1,276.781z
	M171.6,276.781c-8.1,0-14.6-6.5-14.6-14.6c0-8.1,6.5-14.6,14.6-14.6s14.6,6.5,14.6,14.6
	C186.2,270.281,179.7,276.781,171.6,276.781z M220.2,276.781c-8.1,0-14.6-6.5-14.6-14.6c0-8.1,6.5-14.6,14.6-14.6
	s14.6,6.5,14.6,14.6C234.8,270.281,228.2,276.781,220.2,276.781z M402.5,258.781l-7.5,2.5v44.3l-41.9-41.9h-9.9
	c0-0.5,0.1-1,0.1-1.5c0-65.3-52.9-118.1-118.1-118.1h-39.1c11.1-39.9,47.6-69.2,90.9-69.2h95.6c52.1,0,94.4,42.4,94.4,94.4
	C467.1,209.881,441.2,245.881,402.5,258.781z"/>
</g>
<g>
</g>
<g>
</g>
<g>
</g>
<g>
</g>
<g>
</g>
<g>
</g>
<g>
</g>
<g>
</g>
<g>
</g>
<g>
</g>
<g>
</g>
<g>
</g>
<g>
</g>
<g>
</g>
<g>
</g>
</svg>
